<svg xmlns="http://www.w3.org/2000/svg" xmlns:xlink="http://www.w3.org/1999/xlink" width="500" zoomAndPan="magnify" viewBox="0 0 375 374.999991" height="500" preserveAspectRatio="xMidYMid meet" version="1.0"><defs><filter x="0%" y="0%" width="100%" height="100%" id="id1"><feColorMatrix values="0 0 0 0 1 0 0 0 0 1 0 0 0 0 1 0 0 0 1 0" color-interpolation-filters="sRGB"/></filter><g/><mask id="id2"><g filter="url(#id1)"><rect x="-37.5" width="450" fill="rgb(0%, 0%, 0%)" y="-37.499999" height="449.999989" fill-opacity="0.5098"/></g></mask><clipPath id="id3"><path d="M 0.558594 0.902344 L 63.441406 0.902344 L 63.441406 63.902344 L 0.558594 63.902344 Z M 0.558594 0.902344 " clip-rule="nonzero"/></clipPath><clipPath id="id4"><rect x="0" width="64" y="0" height="65"/></clipPath><mask id="id5"><g filter="url(#id1)"><rect x="-37.5" width="450" fill="rgb(0%, 0%, 0%)" y="-37.499999" height="449.999989" fill-opacity="0.8"/></g></mask><clipPath id="id6"><rect x="0" width="167" y="0" height="309"/></clipPath></defs><g mask="url(#id2)"><g transform="matrix(1, 0, 0, 1, 214, 211)"><g clip-path="url(#id4)"><g clip-path="url(#id3)"><path fill="rgb(42.349243%, 90.979004%, 95.689392%)" d="M 62.21875 24.25 C 60.050781 16.121094 54.863281 9.332031 47.609375 5.125 C 42.84375 2.363281 37.433594 0.902344 31.964844 0.902344 C 20.785156 0.902344 10.371094 6.9375 4.785156 16.652344 C -3.855469 31.691406 1.289062 50.992188 16.257812 59.675781 C 21.027344 62.441406 26.4375 63.902344 31.90625 63.902344 C 43.085938 63.902344 53.5 57.863281 59.085938 48.148438 C 63.273438 40.859375 64.382812 32.375 62.21875 24.25 Z M 60.839844 36.019531 C 60.359375 39.898438 59.121094 43.605469 57.152344 47.027344 C 55.828125 49.332031 54.210938 51.429688 52.347656 53.273438 C 50.535156 55.066406 48.492188 56.605469 46.285156 57.859375 C 41.902344 60.347656 36.929688 61.660156 31.90625 61.660156 C 29.40625 61.660156 26.917969 61.335938 24.507812 60.695312 C 22.03125 60.035156 19.628906 59.039062 17.375 57.734375 C 13.972656 55.761719 11.050781 53.175781 8.703125 50.054688 C 6.433594 47.03125 4.785156 43.640625 3.808594 39.96875 C 2.828125 36.300781 2.566406 32.53125 3.03125 28.78125 C 3.507812 24.902344 4.75 21.199219 6.714844 17.773438 C 8.039062 15.472656 9.65625 13.367188 11.523438 11.527344 C 13.328125 9.742188 15.371094 8.195312 17.585938 6.941406 C 24.136719 3.222656 32.097656 2.179688 39.359375 4.105469 C 41.851562 4.765625 44.253906 5.761719 46.496094 7.066406 C 49.902344 9.042969 52.820312 11.628906 55.167969 14.746094 C 57.4375 17.769531 59.085938 21.160156 60.0625 24.828125 C 61.042969 28.5 61.304688 32.261719 60.839844 36.019531 Z M 60.839844 36.019531 " fill-opacity="1" fill-rule="nonzero"/></g><path fill="rgb(42.349243%, 90.979004%, 95.689392%)" d="M 50.8125 42.058594 L 33.050781 31.753906 L 33.050781 11.148438 C 33.050781 10.535156 32.550781 10.03125 31.933594 10.03125 C 31.320312 10.03125 30.820312 10.535156 30.820312 11.148438 L 30.824219 32.316406 C 30.792969 32.75 31.003906 33.15625 31.378906 33.371094 L 49.695312 43.996094 C 50.214844 44.296875 50.925781 44.101562 51.21875 43.585938 C 51.371094 43.328125 51.40625 43.027344 51.332031 42.738281 C 51.253906 42.445312 51.070312 42.207031 50.8125 42.058594 Z M 50.8125 42.058594 " fill-opacity="1" fill-rule="nonzero"/></g></g></g><g mask="url(#id5)"><g transform="matrix(1, 0, 0, 1, 96, 33)"><g clip-path="url(#id6)"><g fill="rgb(42.349243%, 90.979004%, 95.689392%)" fill-opacity="1"><g transform="translate(0.241251, 244.113488)"><g><path d="M 46.3125 -73.125 L 46.3125 0 L 21.6875 0 L 21.6875 -186.796875 L 90.578125 -186.796875 C 111.015625 -186.796875 127.03125 -181.578125 138.625 -171.140625 C 150.21875 -160.710938 156.015625 -146.898438 156.015625 -129.703125 C 156.015625 -111.578125 150.347656 -97.613281 139.015625 -87.8125 C 127.679688 -78.019531 111.453125 -73.125 90.328125 -73.125 Z M 46.3125 -93.265625 L 90.578125 -93.265625 C 103.742188 -93.265625 113.832031 -96.363281 120.84375 -102.5625 C 127.863281 -108.769531 131.375 -117.734375 131.375 -129.453125 C 131.375 -140.566406 127.863281 -149.457031 120.84375 -156.125 C 113.832031 -162.800781 104.210938 -166.269531 91.984375 -166.53125 L 46.3125 -166.53125 Z M 46.3125 -93.265625 "/></g></g></g></g></g></g><g fill="rgb(0%, 0%, 0%)" fill-opacity="1"><g transform="translate(150.108261, 276.368526)"><g><path d="M 23.21875 -59.046875 L 0.375 -59.046875 L 0.375 -64.984375 L 52.921875 -64.984375 L 52.921875 -59.046875 L 30.078125 -59.046875 L 30.078125 0 L 23.21875 0 Z M 23.21875 -59.046875 "/></g></g></g><g fill="rgb(0%, 0%, 0%)" fill-opacity="1"><g transform="translate(203.399997, 276.368526)"><g><path d="M 38.8125 0.5625 C 32.375 0.5625 26.566406 -0.859375 21.390625 -3.703125 C 16.222656 -6.554688 12.171875 -10.503906 9.234375 -15.546875 C 6.296875 -20.597656 4.828125 -26.25 4.828125 -32.5 C 4.828125 -38.75 6.296875 -44.394531 9.234375 -49.4375 C 12.171875 -54.476562 16.238281 -58.421875 21.4375 -61.265625 C 26.644531 -64.117188 32.46875 -65.546875 38.90625 -65.546875 C 43.726562 -65.546875 48.179688 -64.738281 52.265625 -63.125 C 56.359375 -61.519531 59.828125 -59.171875 62.671875 -56.078125 L 58.3125 -51.71875 C 53.226562 -56.851562 46.820312 -59.421875 39.09375 -59.421875 C 33.945312 -59.421875 29.269531 -58.242188 25.0625 -55.890625 C 20.851562 -53.535156 17.554688 -50.316406 15.171875 -46.234375 C 12.796875 -42.148438 11.609375 -37.570312 11.609375 -32.5 C 11.609375 -27.414062 12.796875 -22.832031 15.171875 -18.75 C 17.554688 -14.664062 20.851562 -11.445312 25.0625 -9.09375 C 29.269531 -6.75 33.945312 -5.578125 39.09375 -5.578125 C 46.882812 -5.578125 53.289062 -8.175781 58.3125 -13.375 L 62.671875 -9 C 59.828125 -5.90625 56.34375 -3.535156 52.21875 -1.890625 C 48.101562 -0.253906 43.632812 0.5625 38.8125 0.5625 Z M 38.8125 0.5625 "/></g></g></g></svg>