<svg xmlns="http://www.w3.org/2000/svg" xmlns:xlink="http://www.w3.org/1999/xlink" width="500" zoomAndPan="magnify" viewBox="0 0 375 374.999991" height="500" preserveAspectRatio="xMidYMid meet" version="1.0"><defs><filter x="0%" y="0%" width="100%" height="100%" id="id1"><feColorMatrix values="0 0 0 0 1 0 0 0 0 1 0 0 0 0 1 0 0 0 1 0" color-interpolation-filters="sRGB"/></filter><g/><mask id="id2"><g filter="url(#id1)"><rect x="-37.5" width="450" fill="rgb(0%, 0%, 0%)" y="-37.499999" height="449.999989" fill-opacity="0.498"/></g></mask><clipPath id="id3"><path d="M 0.558594 0.777344 L 63.441406 0.777344 L 63.441406 63.777344 L 0.558594 63.777344 Z M 0.558594 0.777344 " clip-rule="nonzero"/></clipPath><clipPath id="id4"><rect x="0" width="64" y="0" height="64"/></clipPath><mask id="id5"><g filter="url(#id1)"><rect x="-37.5" width="450" fill="rgb(0%, 0%, 0%)" y="-37.499999" height="449.999989" fill-opacity="0.8"/></g></mask><clipPath id="id6"><rect x="0" width="167" y="0" height="309"/></clipPath><mask id="id7"><g filter="url(#id1)"><rect x="-37.5" width="450" fill="rgb(0%, 0%, 0%)" y="-37.499999" height="449.999989" fill-opacity="0.749"/></g></mask><clipPath id="id8"><rect x="0" width="121" y="0" height="114"/></clipPath></defs><g mask="url(#id2)"><g transform="matrix(1, 0, 0, 1, 214, 211)"><g clip-path="url(#id4)"><g clip-path="url(#id3)"><path fill="rgb(42.349243%, 90.979004%, 95.689392%)" d="M 62.21875 24.125 C 60.050781 15.996094 54.863281 9.207031 47.609375 5 C 42.84375 2.238281 37.433594 0.777344 31.964844 0.777344 C 20.785156 0.777344 10.371094 6.8125 4.785156 16.527344 C -3.855469 31.566406 1.289062 50.867188 16.257812 59.550781 C 21.027344 62.316406 26.4375 63.777344 31.90625 63.777344 C 43.085938 63.777344 53.5 57.738281 59.085938 48.023438 C 63.273438 40.734375 64.382812 32.25 62.21875 24.125 Z M 60.839844 35.894531 C 60.359375 39.773438 59.121094 43.480469 57.152344 46.902344 C 55.828125 49.207031 54.210938 51.304688 52.347656 53.148438 C 50.535156 54.941406 48.492188 56.480469 46.285156 57.734375 C 41.902344 60.222656 36.929688 61.535156 31.90625 61.535156 C 29.40625 61.535156 26.917969 61.210938 24.507812 60.570312 C 22.03125 59.910156 19.628906 58.917969 17.375 57.609375 C 13.972656 55.636719 11.050781 53.050781 8.703125 49.929688 C 6.433594 46.90625 4.785156 43.515625 3.808594 39.847656 C 2.828125 36.175781 2.566406 32.40625 3.03125 28.65625 C 3.507812 24.777344 4.75 21.074219 6.714844 17.648438 C 8.039062 15.347656 9.65625 13.242188 11.523438 11.402344 C 13.328125 9.617188 15.371094 8.070312 17.585938 6.816406 C 24.136719 3.097656 32.097656 2.054688 39.359375 3.980469 C 41.851562 4.640625 44.253906 5.636719 46.496094 6.941406 C 49.902344 8.917969 52.820312 11.503906 55.167969 14.625 C 57.4375 17.644531 59.085938 21.035156 60.0625 24.703125 C 61.042969 28.375 61.304688 32.136719 60.839844 35.894531 Z M 60.839844 35.894531 " fill-opacity="1" fill-rule="nonzero"/></g><path fill="rgb(42.349243%, 90.979004%, 95.689392%)" d="M 50.8125 41.933594 L 33.050781 31.628906 L 33.050781 11.023438 C 33.050781 10.410156 32.550781 9.90625 31.933594 9.90625 C 31.320312 9.90625 30.820312 10.410156 30.820312 11.023438 L 30.824219 32.191406 C 30.792969 32.625 31.003906 33.03125 31.378906 33.246094 L 49.695312 43.871094 C 50.214844 44.171875 50.925781 43.976562 51.21875 43.460938 C 51.371094 43.203125 51.40625 42.902344 51.332031 42.613281 C 51.253906 42.320312 51.070312 42.082031 50.8125 41.933594 Z M 50.8125 41.933594 " fill-opacity="1" fill-rule="nonzero"/></g></g></g><g mask="url(#id5)"><g transform="matrix(1, 0, 0, 1, 96, 33)"><g clip-path="url(#id6)"><g fill="rgb(42.349243%, 90.979004%, 95.689392%)" fill-opacity="1"><g transform="translate(0.241251, 244.113479)"><g><path d="M 46.3125 -73.125 L 46.3125 0 L 21.6875 0 L 21.6875 -186.796875 L 90.578125 -186.796875 C 111.015625 -186.796875 127.03125 -181.578125 138.625 -171.140625 C 150.21875 -160.710938 156.015625 -146.898438 156.015625 -129.703125 C 156.015625 -111.578125 150.347656 -97.613281 139.015625 -87.8125 C 127.679688 -78.019531 111.453125 -73.125 90.328125 -73.125 Z M 46.3125 -93.265625 L 90.578125 -93.265625 C 103.742188 -93.265625 113.832031 -96.363281 120.84375 -102.5625 C 127.863281 -108.769531 131.375 -117.734375 131.375 -129.453125 C 131.375 -140.566406 127.863281 -149.457031 120.84375 -156.125 C 113.832031 -162.800781 104.210938 -166.269531 91.984375 -166.53125 L 46.3125 -166.53125 Z M 46.3125 -93.265625 "/></g></g></g></g></g></g><g mask="url(#id7)"><g transform="matrix(1, 0, 0, 1, 150, 186)"><g clip-path="url(#id8)"><g fill="rgb(0%, 0%, 0%)" fill-opacity="1"><g transform="translate(0.108261, 90.429225)"><g><path d="M 23.296875 -59.28125 L 0.375 -59.28125 L 0.375 -65.234375 L 53.125 -65.234375 L 53.125 -59.28125 L 30.203125 -59.28125 L 30.203125 0 L 23.296875 0 Z M 23.296875 -59.28125 "/></g></g></g><g fill="rgb(0%, 0%, 0%)" fill-opacity="1"><g transform="translate(53.604626, 90.429225)"><g><path d="M 38.953125 0.5625 C 32.492188 0.5625 26.671875 -0.863281 21.484375 -3.71875 C 16.296875 -6.582031 12.222656 -10.546875 9.265625 -15.609375 C 6.316406 -20.671875 4.84375 -26.34375 4.84375 -32.625 C 4.84375 -38.894531 6.316406 -44.5625 9.265625 -49.625 C 12.222656 -54.695312 16.3125 -58.660156 21.53125 -61.515625 C 26.75 -64.367188 32.585938 -65.796875 39.046875 -65.796875 C 43.898438 -65.796875 48.375 -64.988281 52.46875 -63.375 C 56.570312 -61.757812 60.050781 -59.398438 62.90625 -56.296875 L 58.53125 -51.921875 C 53.4375 -57.078125 47.003906 -59.65625 39.234375 -59.65625 C 34.078125 -59.65625 29.382812 -58.472656 25.15625 -56.109375 C 20.9375 -53.742188 17.628906 -50.507812 15.234375 -46.40625 C 12.847656 -42.3125 11.65625 -37.71875 11.65625 -32.625 C 11.65625 -27.53125 12.847656 -22.929688 15.234375 -18.828125 C 17.628906 -14.722656 20.9375 -11.488281 25.15625 -9.125 C 29.382812 -6.769531 34.078125 -5.59375 39.234375 -5.59375 C 47.066406 -5.59375 53.5 -8.203125 58.53125 -13.421875 L 62.90625 -9.046875 C 60.050781 -5.929688 56.554688 -3.550781 52.421875 -1.90625 C 48.296875 -0.257812 43.804688 0.5625 38.953125 0.5625 Z M 38.953125 0.5625 "/></g></g></g></g></g></g><g fill="rgb(0%, 0%, 0%)" fill-opacity="1"><g transform="translate(142.200142, 295.239415)"><g><path d="M 8.84375 -7.015625 C 8.84375 -5.742188 8.546875 -4.800781 7.953125 -4.1875 C 7.359375 -3.570312 6.390625 -3.265625 5.046875 -3.265625 L 3.296875 -3.265625 L 3.296875 0 L 1.140625 0 L 1.140625 -10.546875 L 5.109375 -10.546875 C 6.296875 -10.546875 7.210938 -10.265625 7.859375 -9.703125 C 8.515625 -9.148438 8.84375 -8.253906 8.84375 -7.015625 Z M 6.625 -7 C 6.625 -7.59375 6.457031 -8.019531 6.125 -8.28125 C 5.800781 -8.550781 5.21875 -8.6875 4.375 -8.6875 L 3.296875 -8.6875 L 3.296875 -5.140625 L 4.171875 -5.140625 C 4.953125 -5.140625 5.492188 -5.191406 5.796875 -5.296875 C 6.097656 -5.410156 6.3125 -5.597656 6.4375 -5.859375 C 6.5625 -6.117188 6.625 -6.5 6.625 -7 Z M 6.625 -7 "/></g></g></g><g fill="rgb(0%, 0%, 0%)" fill-opacity="1"><g transform="translate(151.636425, 295.239415)"><g><path d="M 9.8125 -4.40625 C 9.8125 -2.75 9.476562 -1.5625 8.8125 -0.84375 C 8.144531 -0.125 7.035156 0.234375 5.484375 0.234375 C 3.941406 0.234375 2.832031 -0.117188 2.15625 -0.828125 C 1.476562 -1.546875 1.140625 -2.738281 1.140625 -4.40625 L 1.140625 -10.546875 L 3.296875 -10.546875 L 3.296875 -4.5625 C 3.296875 -3.84375 3.363281 -3.273438 3.5 -2.859375 C 3.632812 -2.453125 3.851562 -2.148438 4.15625 -1.953125 C 4.457031 -1.765625 4.894531 -1.671875 5.46875 -1.671875 C 6.28125 -1.671875 6.847656 -1.882812 7.171875 -2.3125 C 7.503906 -2.75 7.671875 -3.488281 7.671875 -4.53125 L 7.671875 -10.546875 L 9.8125 -10.546875 Z M 9.8125 -4.40625 "/></g></g></g><g fill="rgb(0%, 0%, 0%)" fill-opacity="1"><g transform="translate(162.588294, 295.239415)"><g><path d="M 7.09375 0 L 3.25 -7.53125 L 3.25 0 L 1.140625 0 L 1.140625 -10.546875 L 3.9375 -10.546875 L 7.5 -3.4375 L 7.5 -10.546875 L 9.625 -10.546875 L 9.625 0 Z M 7.09375 0 "/></g></g></g><g fill="rgb(0%, 0%, 0%)" fill-opacity="1"><g transform="translate(173.334536, 295.239415)"><g><path d="M 9.71875 -1.75 C 9.269531 -1.070312 8.71875 -0.570312 8.0625 -0.25 C 7.40625 0.0625 6.59375 0.21875 5.625 0.21875 C 2.363281 0.21875 0.734375 -1.613281 0.734375 -5.28125 C 0.734375 -7.15625 1.144531 -8.535156 1.96875 -9.421875 C 2.800781 -10.316406 4 -10.765625 5.5625 -10.765625 C 6.59375 -10.765625 7.429688 -10.585938 8.078125 -10.234375 C 8.722656 -9.890625 9.21875 -9.4375 9.5625 -8.875 L 7.890625 -7.578125 C 7.648438 -7.941406 7.425781 -8.207031 7.21875 -8.375 C 7.019531 -8.539062 6.789062 -8.660156 6.53125 -8.734375 C 6.269531 -8.816406 5.960938 -8.859375 5.609375 -8.859375 C 4.742188 -8.859375 4.082031 -8.582031 3.625 -8.03125 C 3.175781 -7.476562 2.953125 -6.5625 2.953125 -5.28125 C 2.953125 -4.070312 3.160156 -3.171875 3.578125 -2.578125 C 4.003906 -1.984375 4.6875 -1.6875 5.625 -1.6875 C 6.25 -1.6875 6.734375 -1.804688 7.078125 -2.046875 C 7.421875 -2.285156 7.738281 -2.601562 8.03125 -3 Z M 9.71875 -1.75 "/></g></g></g><g fill="rgb(0%, 0%, 0%)" fill-opacity="1"><g transform="translate(183.486726, 295.239415)"><g><path d="M 7.453125 0 L 7.453125 -4.484375 L 3.296875 -4.484375 L 3.296875 0 L 1.140625 0 L 1.140625 -10.546875 L 3.296875 -10.546875 L 3.296875 -6.453125 L 7.453125 -6.453125 L 7.453125 -10.546875 L 9.609375 -10.546875 L 9.609375 0 Z M 7.453125 0 "/></g></g></g><g fill="rgb(0%, 0%, 0%)" fill-opacity="1"><g transform="translate(194.217736, 295.239415)"><g/></g></g><g fill="rgb(0%, 0%, 0%)" fill-opacity="1"><g transform="translate(197.964829, 295.239415)"><g><path d="M 5.65625 -8.578125 L 5.65625 0 L 3.515625 0 L 3.515625 -8.578125 L 0.265625 -8.578125 L 0.265625 -10.546875 L 8.90625 -10.546875 L 8.90625 -8.578125 Z M 5.65625 -8.578125 "/></g></g></g><g fill="rgb(0%, 0%, 0%)" fill-opacity="1"><g transform="translate(207.134544, 295.239415)"><g><path d="M 7.453125 0 L 7.453125 -4.484375 L 3.296875 -4.484375 L 3.296875 0 L 1.140625 0 L 1.140625 -10.546875 L 3.296875 -10.546875 L 3.296875 -6.453125 L 7.453125 -6.453125 L 7.453125 -10.546875 L 9.609375 -10.546875 L 9.609375 0 Z M 7.453125 0 "/></g></g></g><g fill="rgb(0%, 0%, 0%)" fill-opacity="1"><g transform="translate(217.865554, 295.239415)"><g><path d="M 1.140625 0 L 1.140625 -10.546875 L 8 -10.546875 L 8 -8.65625 L 3.296875 -8.65625 L 3.296875 -6.40625 L 7.25 -6.40625 L 7.25 -4.5 L 3.296875 -4.5 L 3.296875 -1.96875 L 8 -1.96875 L 8 0 Z M 1.140625 0 "/></g></g></g><g fill="rgb(0%, 0%, 0%)" fill-opacity="1"><g transform="translate(226.616393, 295.239415)"><g/></g></g><g fill="rgb(0%, 0%, 0%)" fill-opacity="1"><g transform="translate(230.363486, 295.239415)"><g><path d="M 9.71875 -1.75 C 9.269531 -1.070312 8.71875 -0.570312 8.0625 -0.25 C 7.40625 0.0625 6.59375 0.21875 5.625 0.21875 C 2.363281 0.21875 0.734375 -1.613281 0.734375 -5.28125 C 0.734375 -7.15625 1.144531 -8.535156 1.96875 -9.421875 C 2.800781 -10.316406 4 -10.765625 5.5625 -10.765625 C 6.59375 -10.765625 7.429688 -10.585938 8.078125 -10.234375 C 8.722656 -9.890625 9.21875 -9.4375 9.5625 -8.875 L 7.890625 -7.578125 C 7.648438 -7.941406 7.425781 -8.207031 7.21875 -8.375 C 7.019531 -8.539062 6.789062 -8.660156 6.53125 -8.734375 C 6.269531 -8.816406 5.960938 -8.859375 5.609375 -8.859375 C 4.742188 -8.859375 4.082031 -8.582031 3.625 -8.03125 C 3.175781 -7.476562 2.953125 -6.5625 2.953125 -5.28125 C 2.953125 -4.070312 3.160156 -3.171875 3.578125 -2.578125 C 4.003906 -1.984375 4.6875 -1.6875 5.625 -1.6875 C 6.25 -1.6875 6.734375 -1.804688 7.078125 -2.046875 C 7.421875 -2.285156 7.738281 -2.601562 8.03125 -3 Z M 9.71875 -1.75 "/></g></g></g><g fill="rgb(0%, 0%, 0%)" fill-opacity="1"><g transform="translate(240.515676, 295.239415)"><g><path d="M 1.140625 0 L 1.140625 -10.546875 L 3.296875 -10.546875 L 3.296875 -1.96875 L 7.734375 -1.96875 L 7.734375 0 Z M 1.140625 0 "/></g></g></g><g fill="rgb(0%, 0%, 0%)" fill-opacity="1"><g transform="translate(248.421128, 295.239415)"><g><path d="M 9.734375 -5.28125 C 9.734375 -3.4375 9.347656 -2.054688 8.578125 -1.140625 C 7.804688 -0.234375 6.679688 0.21875 5.203125 0.21875 C 3.640625 0.21875 2.488281 -0.257812 1.75 -1.21875 C 1.019531 -2.1875 0.65625 -3.539062 0.65625 -5.28125 C 0.65625 -7.019531 1.019531 -8.367188 1.75 -9.328125 C 2.488281 -10.285156 3.640625 -10.765625 5.203125 -10.765625 C 6.765625 -10.765625 7.910156 -10.285156 8.640625 -9.328125 C 9.367188 -8.367188 9.734375 -7.019531 9.734375 -5.28125 Z M 7.515625 -5.28125 C 7.515625 -6.53125 7.335938 -7.4375 6.984375 -8 C 6.640625 -8.570312 6.046875 -8.859375 5.203125 -8.859375 C 4.359375 -8.859375 3.757812 -8.570312 3.40625 -8 C 3.050781 -7.4375 2.875 -6.53125 2.875 -5.28125 C 2.875 -4.03125 3.050781 -3.117188 3.40625 -2.546875 C 3.769531 -1.972656 4.367188 -1.6875 5.203125 -1.6875 C 6.046875 -1.6875 6.640625 -1.972656 6.984375 -2.546875 C 7.335938 -3.117188 7.515625 -4.03125 7.515625 -5.28125 Z M 7.515625 -5.28125 "/></g></g></g><g fill="rgb(0%, 0%, 0%)" fill-opacity="1"><g transform="translate(258.80941, 295.239415)"><g><path d="M 9.71875 -1.75 C 9.269531 -1.070312 8.71875 -0.570312 8.0625 -0.25 C 7.40625 0.0625 6.59375 0.21875 5.625 0.21875 C 2.363281 0.21875 0.734375 -1.613281 0.734375 -5.28125 C 0.734375 -7.15625 1.144531 -8.535156 1.96875 -9.421875 C 2.800781 -10.316406 4 -10.765625 5.5625 -10.765625 C 6.59375 -10.765625 7.429688 -10.585938 8.078125 -10.234375 C 8.722656 -9.890625 9.21875 -9.4375 9.5625 -8.875 L 7.890625 -7.578125 C 7.648438 -7.941406 7.425781 -8.207031 7.21875 -8.375 C 7.019531 -8.539062 6.789062 -8.660156 6.53125 -8.734375 C 6.269531 -8.816406 5.960938 -8.859375 5.609375 -8.859375 C 4.742188 -8.859375 4.082031 -8.582031 3.625 -8.03125 C 3.175781 -7.476562 2.953125 -6.5625 2.953125 -5.28125 C 2.953125 -4.070312 3.160156 -3.171875 3.578125 -2.578125 C 4.003906 -1.984375 4.6875 -1.6875 5.625 -1.6875 C 6.25 -1.6875 6.734375 -1.804688 7.078125 -2.046875 C 7.421875 -2.285156 7.738281 -2.601562 8.03125 -3 Z M 9.71875 -1.75 "/></g></g></g><g fill="rgb(0%, 0%, 0%)" fill-opacity="1"><g transform="translate(268.961601, 295.239415)"><g><path d="M 6.859375 0 L 3.9375 -4.40625 L 3.296875 -3.671875 L 3.296875 0 L 1.140625 0 L 1.140625 -10.546875 L 3.296875 -10.546875 L 3.296875 -6.4375 L 6.75 -10.546875 L 9.25 -10.546875 L 5.3125 -6 L 9.53125 0 Z M 6.859375 0 "/></g></g></g></svg>